<svg width="163" height="48" viewBox="0 0 163 48" fill="none" xmlns="http://www.w3.org/2000/svg">
<g clip-path="url(#clip0_1061_54554)">
<path d="M43.2721 11.9931C42.2261 10.1676 40.7281 8.64218 38.9217 7.56385C37.1153 6.48552 35.0615 5.89136 32.9586 5.83637C31.8504 4.05151 30.3047 2.57867 28.4672 1.55772C26.6309 0.535578 24.5639 0 22.4623 0C20.3606 0 18.2936 0.535578 16.4573 1.55772C14.6211 2.57867 13.0753 4.05151 11.9659 5.83637C9.86781 5.91168 7.82233 6.5154 6.01954 7.59134C4.21674 8.66728 2.71401 10.182 1.65242 11.9931C0.603979 13.8103 0.0361229 15.8665 0.00504024 17.9646C-0.0272379 20.0639 0.478453 22.1356 1.4719 23.9839C0.474867 25.8369 -0.0308244 27.9122 0.00145378 30.0139C0.0337319 32.1156 0.602784 34.1754 1.65362 35.9949C2.70565 37.8156 4.20479 39.3363 6.00997 40.4146C7.81516 41.493 9.86542 42.0907 11.9671 42.1541C13.0741 43.9413 14.6187 45.4165 16.4561 46.4399C18.2936 47.4632 20.3606 48 22.4635 48C24.5663 48 26.6333 47.4632 28.4708 46.4399C30.3082 45.4165 31.8528 43.9413 32.9598 42.1541C35.0639 42.0955 37.1165 41.5001 38.9253 40.4242C40.7329 39.3471 42.2356 37.8264 43.2888 36.0045C44.3421 34.1826 44.9111 32.1215 44.9422 30.0175C44.9733 27.9134 44.4652 25.8369 43.4658 23.9851C44.4365 22.1285 44.9279 20.0591 44.8932 17.9646C44.8597 15.8701 44.3026 13.8174 43.2733 11.9931H43.2721ZM33.7704 7.33312C35.4704 7.5232 37.1034 8.10899 38.5356 9.04386C39.9678 9.97873 41.1609 11.2376 42.0192 12.7176C42.8776 14.1976 43.3749 15.8593 43.4741 17.5677C43.5734 19.276 43.2697 20.9832 42.5883 22.5529C41.5602 21.1362 40.2427 19.9539 38.7221 19.0859C37.2014 18.218 35.5134 17.6836 33.7704 17.5199C34.5295 15.9095 34.9133 14.1486 34.8929 12.3685C34.8379 10.6351 34.4566 8.9267 33.7704 7.33431V7.33312ZM33.7704 19.0142C35.2528 19.184 36.6886 19.6454 37.9916 20.3711C39.5087 21.2797 40.8046 22.5134 41.7861 23.9839C40.8237 25.4818 39.5243 26.7335 37.9916 27.6397C36.7029 28.4024 35.2612 28.8698 33.7704 29.0073C34.4745 27.4269 34.8391 25.7149 34.8391 23.9839C34.8403 22.2707 34.4757 20.5755 33.7704 19.0142ZM22.4623 1.40111C24.1658 1.40111 25.8455 1.79801 27.3673 2.56312C28.8892 3.32824 30.2114 4.43765 31.2264 5.80528C29.4893 5.9858 27.8121 6.54051 26.3093 7.42995C24.7576 8.30146 23.421 9.51129 22.3977 10.9674C21.3744 9.5101 20.0378 8.30146 18.4861 7.42995C16.9762 6.56681 15.3073 6.0145 13.5798 5.80528C14.633 4.4496 15.9791 3.34975 17.5165 2.58703C19.0551 1.82431 20.7455 1.41904 22.4611 1.40231L22.4623 1.40111ZM24.5149 27.6074C26.4074 29.2249 28.7493 30.2243 31.2264 30.4718C30.3345 31.684 29.2 32.6966 27.8958 33.4449C26.5915 34.1945 25.1449 34.6631 23.6482 34.8221C24.6703 32.5746 24.9728 30.0653 24.5137 27.6397V27.6074H24.5149ZM24.5149 20.34C24.9525 17.906 24.6512 15.3967 23.6494 13.136C25.1402 13.3153 26.5783 13.7935 27.8802 14.5407C29.1821 15.2879 30.3202 16.2897 31.2264 17.4864C28.7589 17.7841 26.4289 18.7859 24.5149 20.3723V20.34ZM21.2225 34.8759C19.7318 34.7014 18.2924 34.2268 16.9905 33.4808C15.6886 32.7348 14.5505 31.7342 13.6455 30.5363C16.1166 30.2649 18.4526 29.2679 20.3582 27.6719C19.9207 30.1167 20.2219 32.6356 21.2237 34.9082V34.8759H21.2225ZM20.357 20.34C18.4586 18.7333 16.119 17.7386 13.6444 17.4864C14.535 16.2742 15.6695 15.2604 16.9738 14.5108C18.2781 13.7613 19.7258 13.2938 21.2225 13.136C20.2171 15.4074 19.9159 17.9275 20.357 20.3723V20.34ZM12.7788 7.23628C14.5434 7.30801 16.2661 7.79816 17.8023 8.66848C19.1018 9.43717 20.241 10.4498 21.158 11.65C19.4353 11.8317 17.7712 12.3733 16.272 13.24C14.7729 14.1067 13.4734 15.2807 12.4584 16.683C11.8667 15.3082 11.5511 13.8294 11.5283 12.3326C11.5319 10.5681 11.9599 8.82987 12.7788 7.26617V7.23389V7.23628ZM12.4584 19.6024C13.9133 21.6192 15.9552 23.1375 18.3044 23.9528C15.9744 24.7992 13.9432 26.3079 12.4584 28.2924C11.8667 26.9212 11.5511 25.4459 11.5283 23.9528C11.5236 22.4632 11.8404 20.9904 12.4584 19.6347V19.6024ZM11.1542 40.6585C9.45417 40.4684 7.82113 39.8826 6.38894 38.9478C4.95675 38.0129 3.76365 36.7541 2.90529 35.274C2.04813 33.794 1.54961 32.1323 1.45038 30.424C1.35116 28.7156 1.65481 27.0084 2.33624 25.4388C3.3524 26.8279 4.64472 27.9911 6.13072 28.8591C7.67409 29.7425 9.38483 30.2924 11.1542 30.473C10.4189 32.0893 10.0531 33.849 10.0854 35.6243C10.0806 37.3697 10.4452 39.096 11.1542 40.6908V40.6585ZM11.1542 29.0396C9.66936 28.871 8.23358 28.406 6.93289 27.6719C5.38593 26.7849 4.08524 25.5248 3.14917 24.0054C4.10676 22.505 5.40266 21.2498 6.93289 20.34C8.22401 19.5857 9.66577 19.1218 11.1542 18.9831C10.4632 20.5695 10.1057 22.2815 10.1057 24.0114C10.1057 25.7412 10.462 27.4532 11.1542 29.0396ZM6.18451 19.1003C4.6782 19.9359 3.38349 21.1063 2.4008 22.5206C1.72535 20.9545 1.42408 19.2521 1.52092 17.5497C1.61775 15.8462 2.1091 14.1892 2.9567 12.7092C3.83179 11.2388 5.03087 9.98829 6.46306 9.05103C7.89525 8.11377 9.52112 7.51603 11.2187 7.30084C10.5122 8.88486 10.1487 10.6004 10.1499 12.335C10.1607 14.1115 10.5433 15.8665 11.2725 17.4864C9.47688 17.6585 7.74104 18.2204 6.18451 19.1326V19.1003ZM11.5283 35.6243C11.5128 34.124 11.8308 32.638 12.4584 31.2739C13.4794 32.6715 14.7801 33.8407 16.278 34.7074C17.776 35.5741 19.4377 36.1192 21.158 36.3081C20.2578 37.5239 19.1149 38.5389 17.8023 39.2897C16.2637 40.1552 14.5422 40.6454 12.7788 40.7219C11.9468 39.163 11.5176 37.4223 11.5283 35.6554V35.6231V35.6243ZM22.4623 46.5582C20.7599 46.5594 19.0802 46.1613 17.5596 45.3938C16.0389 44.6275 14.7203 43.5133 13.7089 42.1433C15.4567 41.9484 17.1447 41.389 18.663 40.5019C20.1813 39.6149 21.4975 38.4194 22.5256 36.992C23.549 38.4493 24.8855 39.6579 26.4373 40.5294C27.946 41.3949 29.6149 41.9437 31.3435 42.1433C30.2999 43.5121 28.9573 44.6239 27.4176 45.395C25.8778 46.1661 24.1826 46.5738 22.4623 46.5893V46.557V46.5582ZM32.0812 40.7219C30.3142 40.6454 28.5891 40.1552 27.047 39.2897C25.7499 38.5174 24.6106 37.5048 23.6912 36.3081C25.4139 36.1264 27.078 35.5849 28.5772 34.7169C30.0763 33.849 31.3758 32.6762 32.3908 31.2739C32.9826 32.6488 33.2982 34.1276 33.3209 35.6243C33.3818 37.414 32.9562 39.1869 32.0919 40.7542L32.0812 40.7219ZM32.4553 28.3558C31.0016 26.3426 28.9645 24.8243 26.6202 24.0054C28.9442 23.1494 30.9717 21.6383 32.4553 19.655C33.0471 21.0298 33.3627 22.5086 33.3854 24.0054C33.3783 25.5129 33.0662 27.0037 32.4661 28.388L32.4553 28.3558ZM32.4553 16.738C31.4332 15.3429 30.1325 14.1749 28.6346 13.3106C27.1366 12.4462 25.4749 11.9023 23.7558 11.7158C24.7325 10.396 25.9937 9.31404 27.4463 8.55012C28.8988 7.78621 30.5055 7.35942 32.1457 7.30203C32.9742 8.86932 33.401 10.6171 33.3854 12.39C33.3651 13.8963 33.0531 15.3847 32.4661 16.7715L32.4553 16.7392V16.738ZM41.9678 35.3458C41.0939 36.8174 39.8949 38.0691 38.4627 39.0064C37.0305 39.9436 35.4034 40.5414 33.7058 40.7542C34.4112 39.1689 34.7746 37.4546 34.7746 35.72C34.7638 33.9435 34.3813 32.1885 33.652 30.5686C35.4261 30.3905 37.1428 29.837 38.6862 28.9439C40.1949 28.1131 41.4932 26.9463 42.4807 25.5344C42.6624 26.0258 42.8441 26.5291 43.0366 27.0838C43.4359 28.461 43.5471 29.9039 43.363 31.3265C43.1789 32.748 42.7043 34.1168 41.9678 35.3458Z" fill="#E13336"/>
<path d="M96.0938 4.28711H98.8828V35.3471C98.8828 39.077 101.02 40.6263 103.852 40.6263C104.49 40.6359 105.123 40.5307 105.723 40.3167V42.8069C104.965 43.2361 104.105 43.4501 103.233 43.4262C99.2032 43.4262 96.0938 40.3155 96.0938 35.3459V4.28711Z" fill="#E13336"/>
<path d="M89.5092 30.376C87.0297 38.1467 81.4396 43.7356 73.3593 43.7356C64.0501 43.7356 55.6602 35.6553 55.6602 23.8558C55.6602 12.0564 64.0501 3.97607 73.3593 3.97607C81.4396 3.97607 87.0297 9.56617 89.1995 17.3356H86.0996C84.2287 11.1155 79.8903 6.77591 73.3593 6.77591C65.5994 6.77591 58.7708 13.6057 58.7708 23.8773C58.7708 34.149 65.6006 40.9788 73.3593 40.9788C79.8891 40.9788 84.2287 36.6284 86.4093 30.4191L89.5092 30.376Z" fill="#E13336"/>
<path d="M108.234 16.0864H111.023V32.2362C111.023 34.5041 111.925 36.6787 113.528 38.2818C115.131 39.885 117.307 40.7864 119.575 40.7864C121.843 40.7864 124.017 39.885 125.62 38.2818C127.225 36.6787 128.125 34.5029 128.125 32.2362V16.0864H130.915V43.426H129.055L128.125 39.3864H127.815C126.854 40.7911 125.551 41.928 124.029 42.6884C122.506 43.4499 120.816 43.8097 119.115 43.7356C112.905 43.7356 108.245 39.0756 108.245 32.235L108.234 16.0852V16.0864Z" fill="#E13336"/>
<path d="M161.418 36.5855C160.45 38.735 158.878 40.5557 156.893 41.8253C154.907 43.0949 152.595 43.7596 150.239 43.7357C142.756 43.7357 137.188 37.836 137.188 29.7557C137.188 21.6754 142.778 15.7756 149.928 15.7756C157.078 15.7756 162.348 21.3657 162.348 28.8256C162.348 29.5488 162.243 30.2685 162.038 30.9631H139.989C140.608 36.8628 144.649 40.9036 150.239 40.9036C151.793 40.8892 153.319 40.484 154.675 39.7236C156.032 38.9633 157.175 37.873 157.997 36.5544L161.418 36.5867V36.5855ZM159.537 28.2063C158.917 22.6162 154.888 18.5874 149.917 18.5874C144.946 18.5874 140.908 22.627 139.978 28.2063H159.537Z" fill="#E13336"/>
</g>
<defs>
<clipPath id="clip0_1061_54554">
<rect width="162.347" height="48" fill="white"/>
</clipPath>
</defs>
</svg>
